<svg width="392" height="19" viewBox="0 0 392 19" fill="none" xmlns="http://www.w3.org/2000/svg">
<path opacity="0.07" d="M309.632 0H284.368C283.026 0 282 1.02917 282 2.375V16.625C282 17.9708 283.105 19 284.368 19H309.632C310.974 19 312 17.9708 312 16.625V2.375C312 1.02917 310.895 0 309.632 0Z" fill="black"/>
<path d="M309.631 0.792969C310.5 0.792969 311.21 1.50547 311.21 2.3763V16.6263C311.21 17.4971 310.5 18.2096 309.631 18.2096H284.368C283.5 18.2096 282.789 17.4971 282.789 16.6263V2.3763C282.789 1.50547 283.5 0.792969 284.368 0.792969H309.631Z" fill="#5A31F4"/>
<path d="M298.879 7.68932C298.879 9.00982 297.95 9.9519 296.652 9.9519H295.429C295.409 9.9522 295.389 9.95834 295.372 9.96957C295.355 9.9808 295.342 9.99666 295.334 10.0152C295.329 10.0275 295.326 10.0407 295.326 10.054V11.7894C295.326 11.8028 295.324 11.8162 295.318 11.8286C295.313 11.8411 295.306 11.8524 295.296 11.8619C295.287 11.8713 295.275 11.8789 295.263 11.8839C295.25 11.889 295.237 11.8916 295.224 11.8915H294.368C294.341 11.8915 294.315 11.8806 294.295 11.8613C294.276 11.842 294.265 11.8159 294.265 11.7886V5.53044C294.265 5.51005 294.271 5.49005 294.282 5.47308C294.293 5.45611 294.309 5.44299 294.328 5.43544C294.341 5.4302 294.354 5.4275 294.368 5.42752H296.657C297.95 5.42752 298.879 6.36961 298.879 7.69011V7.68932ZM297.812 7.68932C297.812 6.9309 297.292 6.37673 296.588 6.37673H295.429C295.415 6.37673 295.402 6.3794 295.39 6.38457C295.377 6.38974 295.366 6.39732 295.356 6.40688C295.347 6.41643 295.339 6.42778 295.334 6.44027C295.329 6.45275 295.326 6.46613 295.326 6.47965V8.89423C295.326 8.90777 295.329 8.9212 295.334 8.93372C295.339 8.94623 295.347 8.95758 295.356 8.96707C295.366 8.97665 295.377 8.98425 295.39 8.98942C295.402 8.99458 295.415 8.99721 295.429 8.99715H296.588C297.292 9.00111 297.812 8.44694 297.812 7.68932ZM299.133 10.6905C299.124 10.4877 299.166 10.2859 299.255 10.1037C299.345 9.92144 299.478 9.7647 299.644 9.6479C299.978 9.39773 300.5 9.2679 301.266 9.24098L302.082 9.21248V8.97261C302.082 8.49207 301.758 8.2894 301.239 8.2894C300.719 8.2894 300.39 8.47227 300.315 8.77232C300.309 8.79339 300.295 8.81178 300.278 8.82466C300.26 8.83753 300.238 8.84417 300.216 8.84357H299.409C299.387 8.84385 299.366 8.83691 299.348 8.82378C299.33 8.81064 299.316 8.79203 299.31 8.77073C299.306 8.75664 299.305 8.74176 299.307 8.72719C299.427 8.01627 300.02 7.47636 301.276 7.47636C302.612 7.47636 303.094 8.09623 303.094 9.27819V11.7894C303.094 11.8029 303.091 11.8164 303.086 11.8289C303.08 11.8414 303.073 11.8527 303.063 11.8622C303.053 11.8717 303.042 11.8792 303.029 11.8842C303.017 11.8892 303.003 11.8917 302.99 11.8915H302.177C302.149 11.8915 302.123 11.8806 302.104 11.8613C302.085 11.842 302.074 11.8159 302.074 11.7886V11.6017C302.074 11.5862 302.07 11.571 302.061 11.5581C302.052 11.5453 302.04 11.5353 302.026 11.5297C302.012 11.5241 301.996 11.5227 301.981 11.5258C301.966 11.5289 301.952 11.5363 301.941 11.5471C301.697 11.8115 301.303 12.0023 300.673 12.0023C299.745 12.0023 299.133 11.5218 299.133 10.6905ZM302.082 10.1466V9.9519L301.025 10.0073C300.468 10.0358 300.144 10.2654 300.144 10.6533C300.144 11.0048 300.441 11.1996 300.961 11.1996C301.666 11.1996 302.082 10.8196 302.082 10.1466ZM303.91 13.7883V13.0608C303.91 13.0455 303.914 13.0305 303.921 13.0168C303.927 13.0031 303.937 12.9911 303.949 12.9816C303.961 12.972 303.974 12.9652 303.989 12.9615C304.004 12.9578 304.019 12.9574 304.034 12.9602C304.159 12.9832 304.285 12.9951 304.412 12.9951C304.63 13.007 304.845 12.9451 305.024 12.8193C305.202 12.6935 305.333 12.5111 305.395 12.3016L305.448 12.1345C305.456 12.112 305.456 12.0874 305.448 12.0649L303.755 7.73365C303.745 7.70988 303.744 7.68328 303.753 7.65911C303.762 7.63493 303.779 7.61492 303.802 7.60302C303.817 7.59505 303.834 7.59097 303.851 7.59115H304.672C304.693 7.59121 304.714 7.59767 304.731 7.60968C304.748 7.62169 304.762 7.63869 304.769 7.65844L305.919 10.7135C305.926 10.734 305.939 10.7517 305.957 10.7642C305.975 10.7767 305.996 10.7834 306.017 10.7831C306.039 10.7831 306.06 10.7764 306.078 10.764C306.095 10.7515 306.109 10.7339 306.116 10.7135L307.115 7.66715C307.121 7.64615 307.135 7.62788 307.153 7.61505C307.171 7.60222 307.192 7.59551 307.214 7.5959H308.064C308.089 7.59605 308.114 7.60542 308.133 7.6223C308.152 7.63917 308.164 7.66241 308.168 7.68773C308.17 7.70463 308.168 7.72173 308.162 7.73761L306.35 12.5478C305.933 13.6664 305.218 13.9514 304.431 13.9514C304.282 13.9555 304.133 13.9379 303.988 13.8991C303.964 13.8932 303.943 13.8787 303.928 13.8584C303.914 13.8381 303.907 13.8132 303.909 13.7883H303.91ZM288.764 5.06652C287.687 5.05845 286.647 5.46245 285.857 6.19623C285.823 6.22691 285.802 6.26909 285.798 6.31449C285.793 6.35989 285.806 6.40524 285.834 6.44165L286.322 7.10586C286.337 7.12825 286.358 7.14688 286.382 7.16042C286.405 7.17396 286.432 7.18208 286.459 7.1842C286.487 7.18631 286.514 7.18238 286.54 7.17267C286.565 7.16296 286.588 7.14772 286.607 7.12802C286.891 6.84508 287.229 6.62167 287.6 6.4708C287.971 6.31993 288.368 6.24463 288.769 6.24927C290.443 6.24927 291.317 7.50327 291.317 8.74302C291.317 10.0889 290.398 11.0373 289.078 11.0555C288.058 11.0555 287.289 10.3826 287.289 9.49273C287.29 9.26772 287.341 9.04575 287.439 8.84304C287.536 8.64033 287.677 8.46199 287.852 8.32107C287.89 8.29043 287.913 8.24626 287.918 8.1982C287.923 8.15015 287.909 8.1021 287.878 8.06457L287.365 7.41936C287.35 7.39952 287.33 7.38303 287.308 7.37088C287.286 7.35873 287.262 7.35117 287.237 7.34866C287.212 7.34614 287.187 7.34872 287.163 7.35625C287.139 7.36377 287.117 7.37608 287.098 7.39244C286.783 7.64525 286.529 7.96521 286.354 8.32898C286.179 8.69195 286.088 9.0897 286.088 9.49273C286.088 11.0246 287.394 12.2256 289.068 12.2351H289.092C291.079 12.2097 292.516 10.7436 292.516 8.73986C292.516 6.96098 291.2 5.06652 288.764 5.06652Z" fill="white"/>
<path opacity="0.07" d="M27.6316 0H2.36842C1.02632 0 0 1.02917 0 2.375V16.625C0 17.9708 1.10526 19 2.36842 19H27.6316C28.9737 19 30 17.9708 30 16.625V2.375C30 1.02917 28.8947 0 27.6316 0Z" fill="black"/>
<path d="M27.6312 0.792969C28.4996 0.792969 29.2101 1.50547 29.2101 2.3763V16.6263C29.2101 17.4971 28.4996 18.2096 27.6312 18.2096H2.36801C1.49959 18.2096 0.789062 17.4971 0.789062 16.6263V2.3763C0.789062 1.50547 1.49959 0.792969 2.36801 0.792969H27.6312Z" fill="white"/>
<path d="M19.9436 12.8501C18.6038 14.0218 16.6617 14.6472 14.9896 14.6472C12.6449 14.6472 10.5338 13.618 8.93752 11.9057C8.81121 11.7711 8.92331 11.5874 9.0741 11.6919C10.7975 12.8826 12.9283 13.5982 15.1294 13.5982C16.6136 13.5982 18.2478 13.2341 19.7478 12.4773C19.9752 12.3625 20.1662 12.653 19.9436 12.8493V12.8501ZM20.5009 12.0925C20.3304 11.8328 19.3688 11.9698 18.9378 12.0308C18.8059 12.0498 18.7854 11.9136 18.9038 11.817C19.6696 11.1758 20.9265 11.361 21.0733 11.5755C21.2209 11.7909 21.0362 13.2855 20.3154 14.0004C20.2049 14.1097 20.1007 14.0511 20.1496 13.9054C20.3115 13.4272 20.6738 12.3538 20.5017 12.0925H20.5009Z" fill="#FF9900"/>
<path d="M17.2208 12.1057C16.7677 11.7115 16.6872 11.5278 16.4369 11.1518C15.6893 11.9529 15.1595 12.1928 14.1869 12.1928C13.0398 12.1928 12.1445 11.4502 12.1445 9.96189C12.1445 8.80051 12.7461 8.00884 13.6003 7.62251C14.3424 7.27972 15.3766 7.21876 16.1661 7.12534V6.9393C16.1661 6.59889 16.1922 6.19514 16.0019 5.90222C15.8345 5.63859 15.5156 5.53014 15.2361 5.53014C14.7151 5.53014 14.2493 5.80959 14.1372 6.38909C14.1135 6.51814 14.0235 6.6448 13.9003 6.65034L12.5764 6.5023C12.4658 6.47618 12.3427 6.38118 12.3735 6.20147C12.6782 4.51918 14.1285 4.01172 15.4264 4.01172C16.0895 4.01172 16.958 4.19697 17.4822 4.72422C18.1469 5.37339 18.0837 6.24264 18.0837 7.1863V9.41722C18.0837 10.0878 18.3482 10.3831 18.5969 10.7441C18.6861 10.8739 18.7058 11.0291 18.5945 11.1256C18.3158 11.3695 17.8208 11.8223 17.5477 12.0756C17.5026 12.1132 17.4473 12.1362 17.3889 12.1416C17.3306 12.1469 17.272 12.1344 17.2208 12.1057ZM15.9111 10.1004C16.1795 9.60484 16.1661 9.13934 16.1661 8.58201V8.27168C15.1793 8.27168 14.1372 8.49334 14.1372 9.71251C14.1372 10.3316 14.4419 10.7496 14.9661 10.7496C15.3506 10.7496 15.694 10.5026 15.9111 10.1004Z" fill="#221F1F"/>
<path opacity="0.07" d="M67.6316 0H42.3684C41.0263 0 40 1.02917 40 2.375V16.625C40 17.9708 41.1053 19 42.3684 19H67.6316C68.9737 19 70 17.9708 70 16.625V2.375C70 1.02917 68.8947 0 67.6316 0Z" fill="black"/>
<path d="M67.6312 0.792969C68.4996 0.792969 69.2101 1.50547 69.2101 2.3763V16.6263C69.2101 17.4971 68.4996 18.2096 67.6312 18.2096H42.368C41.4996 18.2096 40.7891 17.4971 40.7891 16.6263V2.3763C40.7891 1.50547 41.4996 0.792969 42.368 0.792969H67.6312Z" fill="#006FCF"/>
<path d="M47.0807 8.12753L47.6918 9.6127H46.4744L47.0807 8.12753ZM59.7715 8.18928H57.4213V8.84399H59.7336V9.82486H57.426V10.5548H59.7763V11.1398L61.416 9.36253L59.7763 7.51003L59.7715 8.18928ZM48.6691 6.33678H51.8231L52.5234 7.86866L53.1723 6.33203H61.3591L62.2102 7.27411L63.0905 6.33203H66.8507L64.0726 9.38153L66.8223 12.412H63.006L62.1549 11.4699L61.2668 12.412H47.9168L47.5268 11.4699H46.6347L46.2439 12.412H43.1562L45.7505 6.33203H48.4584L48.6691 6.33678ZM55.5084 7.1902H53.7407L52.5565 9.98953L51.2736 7.1902H49.5194V10.9981L47.8931 7.1902H46.3197L44.4391 11.5539H45.6668L46.0568 10.6118H48.1063L48.4963 11.5539H50.6436V8.43866L52.026 11.5586H52.9655L54.3391 8.44816V11.5594H55.4902L55.5091 7.18941L55.5084 7.1902ZM62.882 9.38153L64.8802 7.1902H63.4418L62.1778 8.55661L60.9557 7.1902H56.3026V11.5586H60.8894L62.1636 10.1827L63.3857 11.5586H64.866L62.8828 9.38153H62.882Z" fill="white"/>
<path d="M107.149 0H82.8536C82.7524 0 82.651 0 82.55 0.000537913C82.4647 0.00125513 82.3796 0.00215165 82.2943 0.00448261C82.1085 0.00950314 81.9211 0.02062 81.7377 0.053612C81.5537 0.0852215 81.3754 0.144142 81.2087 0.228434C80.8737 0.399325 80.6013 0.672421 80.4309 1.00841C80.3467 1.1756 80.288 1.3545 80.2566 1.53915C80.2233 1.7233 80.2124 1.91103 80.2074 2.09715C80.2052 2.1826 80.2039 2.26807 80.2035 2.35355C80.2031 2.45468 80.2031 2.55616 80.2031 2.65783V16.342C80.2031 16.4437 80.2031 16.545 80.2035 16.6466C80.204 16.732 80.2051 16.8175 80.2074 16.903C80.2124 17.0888 80.2235 17.2767 80.2566 17.4607C80.2879 17.6453 80.3466 17.8242 80.4307 17.9914C80.5154 18.1584 80.6258 18.3109 80.758 18.4433C80.8899 18.5758 81.042 18.6866 81.2086 18.7714C81.3779 18.858 81.5513 18.913 81.7378 18.9466C81.9211 18.9794 82.1085 18.9905 82.2943 18.9955C82.3796 18.9975 82.4647 18.9986 82.55 18.9991C82.651 18.9998 82.7524 18.9998 82.8536 18.9998H107.149C107.25 18.9998 107.352 18.9998 107.453 18.9991C107.538 18.9987 107.623 18.9975 107.708 18.9955C107.894 18.9905 108.081 18.9794 108.265 18.9466C108.449 18.9149 108.627 18.8559 108.794 18.7714C109.129 18.6003 109.401 18.3272 109.572 17.9914C109.658 17.8216 109.713 17.6477 109.746 17.4607C109.779 17.2767 109.79 17.0888 109.795 16.903C109.797 16.8175 109.798 16.732 109.799 16.6466C109.8 16.545 109.8 16.4437 109.8 16.342V2.65801C109.8 2.55634 109.8 2.45486 109.799 2.35337C109.799 2.26795 109.797 2.18254 109.795 2.09715C109.79 1.91103 109.779 1.7233 109.746 1.53915C109.715 1.35447 109.656 1.17555 109.572 1.00841C109.401 0.67248 109.129 0.399406 108.794 0.228434C108.627 0.144229 108.449 0.0853701 108.265 0.0537913C108.081 0.02062 107.894 0.00968244 107.708 0.00466192C107.623 0.00249005 107.538 0.00117509 107.453 0.000717218C107.352 0 107.25 0 107.149 0Z" fill="black"/>
<path d="M107.146 0.632812L107.445 0.63335C107.526 0.633888 107.607 0.634785 107.689 0.636937C107.83 0.640881 107.996 0.648591 108.15 0.676383C108.285 0.70059 108.397 0.737347 108.505 0.792573C108.721 0.902766 108.897 1.07903 109.007 1.29588C109.061 1.40346 109.098 1.51571 109.122 1.65144C109.149 1.80457 109.157 1.97114 109.161 2.11405C109.163 2.19473 109.164 2.27542 109.164 2.3579C109.165 2.45777 109.165 2.55747 109.165 2.65752V16.3417C109.165 16.4417 109.165 16.5414 109.165 16.6433C109.164 16.724 109.163 16.8046 109.161 16.8853C109.157 17.0281 109.149 17.1946 109.122 17.3495C109.101 17.4728 109.062 17.5922 109.006 17.7037C108.896 17.9206 108.721 18.0969 108.504 18.207C108.397 18.2619 108.285 18.2986 108.152 18.3226C107.994 18.3508 107.821 18.3585 107.691 18.3621C107.61 18.3639 107.528 18.3651 107.445 18.3655C107.346 18.3662 107.246 18.3662 107.146 18.3662H82.847C82.7487 18.3662 82.6503 18.3662 82.5502 18.3655C82.4697 18.3651 82.3893 18.3641 82.3088 18.3623C82.1758 18.3587 82.003 18.3508 81.8468 18.3228C81.7232 18.3022 81.6035 18.2629 81.4917 18.2063C81.3844 18.1516 81.2865 18.0802 81.2016 17.9947C81.1165 17.9095 81.0454 17.8112 80.991 17.7037C80.9348 17.5916 80.8959 17.4716 80.8755 17.3478C80.8476 17.193 80.8397 17.0272 80.8361 16.8855C80.8341 16.8045 80.8329 16.7235 80.8326 16.6426L80.832 16.4046V2.59476L80.8324 2.35718C80.8328 2.27607 80.834 2.19496 80.836 2.11387C80.8399 1.97186 80.8476 1.806 80.8757 1.65001C80.8961 1.52644 80.935 1.40668 80.9912 1.2948C81.0455 1.18758 81.1163 1.08968 81.2022 1.00379C81.2872 0.918357 81.3852 0.846948 81.4925 0.792214C81.6041 0.736016 81.7234 0.696969 81.8466 0.676383C82.0013 0.648591 82.167 0.640881 82.309 0.636937C82.3898 0.634785 82.4708 0.633888 82.5511 0.63335L82.851 0.632812H107.146Z" fill="white"/>
<path d="M87.9794 6.41516C88.2305 6.10048 88.4007 5.67786 88.3558 5.24609C87.9885 5.26438 87.5404 5.48905 87.2808 5.80409C87.0478 6.07376 86.8417 6.51396 86.8953 6.92761C87.3076 6.96347 87.7196 6.72105 87.9794 6.41516Z" fill="black"/>
<path d="M88.3525 7.01022C87.7535 6.97436 87.2446 7.3509 86.9587 7.3509C86.6726 7.3509 86.2347 7.02815 85.761 7.03694C85.1447 7.0459 84.5729 7.39555 84.26 7.95139C83.6166 9.06308 84.0901 10.7127 84.7159 11.6182C85.0197 12.0664 85.3859 12.5595 85.8683 12.5418C86.3243 12.5238 86.5029 12.2459 87.0569 12.2459C87.6106 12.2459 87.7716 12.5418 88.2542 12.5328C88.7545 12.5238 89.0674 12.0845 89.3712 11.6363C89.7198 11.1253 89.8624 10.6322 89.8713 10.6053C89.8624 10.5963 88.9065 10.2286 88.8975 9.12583C88.8886 8.20242 89.6481 7.76312 89.6839 7.73605C89.2549 7.09987 88.5848 7.02815 88.3523 7.01022" fill="black"/>
<path d="M94.323 5.75781C95.6244 5.75781 96.5307 6.65738 96.5307 7.96702C96.5307 9.28132 95.6058 10.1856 94.2904 10.1856H92.8496V12.4835H91.8086V5.75781H94.323ZM92.8496 9.3093H94.044C94.9506 9.3093 95.4663 8.81997 95.4663 7.97169C95.4663 7.12357 94.9504 6.63874 94.0487 6.63874H92.8496V9.3093Z" fill="black"/>
<path d="M96.7891 11.0898C96.7891 10.2275 97.4444 9.73353 98.6528 9.65894L99.9495 9.57969V9.20673C99.9495 8.66165 99.5917 8.36329 98.955 8.36329C98.4296 8.36329 98.0484 8.6335 97.9697 9.04823H97.0306C97.0587 8.17681 97.8766 7.54297 98.9829 7.54297C100.173 7.54297 100.949 8.16749 100.949 9.13699V12.4833H99.9869V11.677H99.9636C99.6893 12.2036 99.085 12.5344 98.4296 12.5344C97.463 12.5344 96.7891 11.9567 96.7891 11.0898ZM99.9495 10.6564V10.2788L98.7922 10.3534C98.1414 10.3953 97.8024 10.6376 97.8024 11.0616C97.8024 11.4719 98.1555 11.7376 98.7086 11.7376C99.4149 11.7376 99.9495 11.2854 99.9495 10.6564Z" fill="black"/>
<path d="M101.835 14.2803V13.4741C101.9 13.4833 102.058 13.4926 102.142 13.4926C102.602 13.4926 102.862 13.2972 103.02 12.7935L103.113 12.4953L101.352 7.60156H102.439L103.666 11.5724H103.689L104.916 7.60156H105.976L104.15 12.7422C103.731 13.9215 103.252 14.3084 102.239 14.3084C102.16 14.3084 101.905 14.2991 101.835 14.2803Z" fill="black"/>
<path opacity="0.07" d="M147.632 0H122.368C121.026 0 120 1.02917 120 2.375V16.625C120 17.9708 121.105 19 122.368 19H147.632C148.974 19 150 17.9708 150 16.625V2.375C150 1.02917 148.895 0 147.632 0Z" fill="black"/>
<path d="M147.631 0.792969C148.5 0.792969 149.21 1.50547 149.21 2.3763V16.6263C149.21 17.4971 148.5 18.2096 147.631 18.2096H122.368C121.5 18.2096 120.789 17.4971 120.789 16.6263V2.3763C120.789 1.50547 121.5 0.792969 122.368 0.792969H147.631Z" fill="white"/>
<path d="M134.284 9.47892V12.0123H133.48V5.75809H135.605C135.859 5.75377 136.112 5.79994 136.349 5.89396C136.586 5.98798 136.802 6.12798 136.984 6.30592C137.157 6.46774 137.297 6.66214 137.394 6.87801C137.492 7.09389 137.547 7.32701 137.555 7.56404C137.563 7.80108 137.525 8.03739 137.441 8.25945C137.358 8.48152 137.233 8.685 137.071 8.85826L136.984 8.95009C136.613 9.30396 136.117 9.49634 135.605 9.48367L134.284 9.47892ZM134.284 6.52442V8.73159H135.625C135.922 8.74109 136.21 8.62471 136.418 8.41176C136.567 8.25593 136.667 8.0596 136.706 7.84717C136.745 7.63474 136.72 7.41559 136.636 7.217C136.551 7.0184 136.41 6.84911 136.23 6.73019C136.051 6.61128 135.84 6.54798 135.625 6.54817L134.284 6.52442ZM139.403 7.59159C139.916 7.56784 140.418 7.74042 140.807 8.07688C141.158 8.4173 141.345 8.8923 141.32 9.38234V12.0218H140.555V11.4153H140.516C140.379 11.6428 140.185 11.8304 139.953 11.9597C139.722 12.0889 139.461 12.1554 139.195 12.1524C138.763 12.1664 138.341 12.0157 138.014 11.7304C137.86 11.6039 137.736 11.4438 137.652 11.2623C137.568 11.0807 137.527 10.8823 137.53 10.6823C137.521 10.4801 137.561 10.2786 137.645 10.0946C137.729 9.91068 137.856 9.74953 138.014 9.62459C138.404 9.34367 138.875 9.20028 139.355 9.21688C139.763 9.20105 140.168 9.29051 140.531 9.47892V9.31426C140.534 9.17811 140.506 9.04314 140.449 8.91956C140.392 8.79598 140.307 8.68704 140.202 8.60096C139.991 8.40832 139.714 8.30407 139.428 8.30963C139.221 8.30767 139.017 8.35877 138.834 8.45809C138.652 8.55741 138.498 8.70167 138.387 8.87726L137.68 8.43076C137.872 8.1551 138.131 7.93327 138.433 7.78638C138.734 7.63949 139.068 7.57243 139.403 7.59159ZM138.387 10.7013C138.385 10.8038 138.408 10.9052 138.455 10.9966C138.501 11.088 138.569 11.1666 138.653 11.2253C138.829 11.3647 139.048 11.4383 139.273 11.4335C139.612 11.4328 139.936 11.299 140.178 11.0599C140.418 10.8335 140.555 10.5176 140.555 10.1867C140.251 9.97 139.882 9.8654 139.51 9.89059C139.221 9.87918 138.936 9.96074 138.697 10.1233C138.602 10.1869 138.524 10.2729 138.47 10.3736C138.416 10.4744 138.388 10.5869 138.387 10.7013ZM145.718 7.73251L143.042 13.8996H142.214L143.226 11.7399L141.47 7.73251H142.341L143.613 10.8081L144.852 7.73251H145.718Z" fill="#5F6368"/>
<path d="M131.042 8.93146C131.042 8.68763 131.023 8.44379 130.984 8.20312H127.598V9.58617H129.533C129.493 9.80597 129.41 10.0155 129.288 10.2023C129.166 10.3891 129.007 10.5492 128.822 10.6731V11.5709H129.978C130.329 11.2299 130.606 10.8189 130.789 10.3642C130.972 9.90963 131.058 9.42155 131.042 8.93146Z" fill="#4285F4"/>
<path d="M127.601 12.4461C128.475 12.4702 129.324 12.1596 129.978 11.5777L128.82 10.6752C128.542 10.854 128.227 10.9668 127.899 11.0051C127.571 11.0435 127.238 11.0062 126.927 10.8963C126.615 10.7864 126.333 10.6067 126.101 10.3708C125.869 10.135 125.693 9.84916 125.588 9.53516H124.402V10.4614C124.699 11.0576 125.156 11.559 125.721 11.9096C126.286 12.2602 126.937 12.4459 127.601 12.4461Z" fill="#34A853"/>
<path d="M125.59 9.54198C125.44 9.09651 125.44 8.6139 125.59 8.16844V7.24219H124.404C124.151 7.74209 124.02 8.2947 124.02 8.85521C124.02 9.41571 124.151 9.96833 124.404 10.4682L125.59 9.54198Z" fill="#FBBC04"/>
<path d="M127.601 6.68015C128.112 6.67079 128.606 6.8643 128.975 7.21848L130.001 6.19486C129.347 5.57895 128.479 5.243 127.582 5.25831C126.921 5.26164 126.274 5.44832 125.713 5.79766C125.152 6.147 124.698 6.64536 124.402 7.23748L125.588 8.16452C125.727 7.73709 125.996 7.364 126.357 7.09773C126.718 6.83146 127.153 6.68542 127.601 6.68015Z" fill="#EA4335"/>
<path fill-rule="evenodd" clip-rule="evenodd" d="M188.553 0H162.447C161.061 0 160 1.02917 160 2.375V16.625C160 17.9708 161.142 19 162.447 19H188.553C189.939 19 191 17.9708 191 16.625V2.375C191 1.02917 189.858 0 188.553 0Z" fill="#FFB3C7"/>
<path fill-rule="evenodd" clip-rule="evenodd" d="M188.553 0.792969C189.451 0.792969 190.185 1.50547 190.185 2.3763V16.6263C190.185 17.4971 189.451 18.2096 188.553 18.2096H162.448C161.551 18.2096 160.816 17.4971 160.816 16.6263V2.3763C160.816 1.50547 161.551 0.792969 162.448 0.792969H188.553Z" fill="#FFB3C7"/>
<path d="M187.831 10.436C187.434 10.436 187.111 10.7527 187.111 11.1422C187.111 11.5325 187.434 11.8492 187.831 11.8492C188.229 11.8492 188.551 11.5325 188.551 11.1422C188.552 10.9559 188.477 10.7769 188.342 10.6444C188.207 10.512 188.023 10.4371 187.831 10.436ZM185.463 9.88978C185.463 9.35461 184.998 8.92157 184.423 8.92157C183.849 8.92157 183.384 9.35461 183.384 9.88899C183.384 10.4234 183.849 10.8572 184.423 10.8572C184.998 10.8572 185.463 10.4234 185.463 9.88899V9.88978ZM185.467 8.00878H186.614V11.7692H185.467V11.5293C185.133 11.7538 184.736 11.874 184.329 11.8737C183.213 11.8737 182.308 10.9854 182.308 9.88899C182.308 8.79332 183.213 7.90507 184.329 7.90507C184.751 7.90507 185.142 8.03174 185.467 8.24945V8.00878ZM176.287 8.49882V8.00878H175.112V11.7692H176.289V10.0141C176.289 9.42111 176.943 9.10366 177.398 9.10366H177.411V8.00957C176.946 8.00957 176.517 8.20511 176.287 8.49882ZM173.361 9.88899C173.361 9.35461 172.896 8.92157 172.322 8.92157C171.748 8.92157 171.283 9.35461 171.283 9.88899C171.283 10.4234 171.748 10.8572 172.322 10.8572C172.896 10.8572 173.361 10.4234 173.361 9.88899ZM173.365 8.00878H174.512V11.7692H173.365V11.5293C173.031 11.754 172.634 11.8741 172.227 11.8737C171.111 11.8737 170.206 10.9854 170.206 9.88899C170.206 8.79332 171.111 7.90507 172.227 7.90507C172.649 7.90507 173.041 8.03174 173.364 8.24945V8.00878H173.365ZM180.269 7.90745C179.812 7.90745 179.378 8.04757 179.088 8.43232V8.00878H177.946V11.7692H179.102V9.7932C179.102 9.22161 179.493 8.94136 179.963 8.94136C180.467 8.94136 180.756 9.23745 180.756 9.78528V11.77H181.903V9.37836C181.903 8.50278 181.193 7.90745 180.269 7.90745ZM168.536 11.7708H169.737V6.33203H168.536V11.7692V11.7708ZM163.262 11.7708H164.533V6.33203H163.262V11.7708ZM167.708 6.33203C167.711 6.90431 167.598 7.47159 167.375 8.00139C167.152 8.53118 166.823 9.0131 166.408 9.41953L168.165 11.7708H166.595L164.685 9.21528L165.178 8.8527C165.58 8.55882 165.906 8.17788 166.129 7.74025C166.352 7.30261 166.467 6.82039 166.465 6.33203H167.708Z" fill="#0A0B09"/>
<path opacity="0.07" d="M229.553 0H203.447C202.061 0 201 1.02917 201 2.375V16.625C201 17.9708 202.142 19 203.447 19H229.553C230.939 19 232 17.9708 232 16.625V2.375C232 1.02917 230.858 0 229.553 0Z" fill="black"/>
<path d="M229.553 0.792969C230.451 0.792969 231.185 1.50547 231.185 2.3763V16.6263C231.185 17.4971 230.451 18.2096 229.553 18.2096H203.448C202.551 18.2096 201.816 17.4971 201.816 16.6263V2.3763C201.816 1.50547 202.551 0.792969 203.448 0.792969H229.553Z" fill="white"/>
<path d="M213.238 15.0404C216.392 15.0404 218.948 12.5593 218.948 9.4987C218.948 6.43812 216.392 3.95703 213.238 3.95703C210.084 3.95703 207.527 6.43812 207.527 9.4987C207.527 12.5593 210.084 15.0404 213.238 15.0404Z" fill="#EB001B"/>
<path d="M219.765 15.0404C222.919 15.0404 225.476 12.5593 225.476 9.4987C225.476 6.43812 222.919 3.95703 219.765 3.95703C216.611 3.95703 214.055 6.43812 214.055 9.4987C214.055 12.5593 216.611 15.0404 219.765 15.0404Z" fill="#F79E1B"/>
<path d="M218.949 9.50078C218.949 7.60078 217.97 5.93828 216.502 4.98828C215.034 6.01745 214.055 7.67995 214.055 9.50078C214.055 11.3216 215.034 13.0633 216.502 14.0133C217.97 13.0633 218.949 11.4008 218.949 9.50078Z" fill="#FF5F00"/>
<path opacity="0.07" d="M269.632 0H244.368C243.026 0 242 1.02917 242 2.375V16.625C242 17.9708 243.105 19 244.368 19H269.632C270.974 19 272 17.9708 272 16.625V2.375C272 1.02917 270.895 0 269.632 0Z" fill="black"/>
<path d="M269.631 0.792969C270.5 0.792969 271.21 1.50547 271.21 2.3763V16.6263C271.21 17.4971 270.5 18.2096 269.631 18.2096H244.368C243.5 18.2096 242.789 17.4971 242.789 16.6263V2.3763C242.789 1.50547 243.5 0.792969 244.368 0.792969H269.631Z" fill="white"/>
<path d="M260.87 6.56953C261.028 5.77786 260.87 5.2237 260.397 4.7487C259.923 4.19453 259.055 3.95703 257.949 3.95703H254.713C254.476 3.95703 254.318 4.11536 254.239 4.35286L253.055 12.3487C253.055 12.507 253.134 12.6654 253.292 12.6654H255.423L255.739 9.9737L257.16 8.23203L260.87 6.56953Z" fill="#003087"/>
<path d="M260.869 6.57031L260.711 6.72865C260.316 8.94531 258.974 9.73698 257.079 9.73698H256.211C255.974 9.73698 255.816 9.89531 255.737 10.1328L255.263 13.2203L255.105 14.012C255.105 14.1703 255.184 14.3286 255.342 14.3286H257C257.237 14.3286 257.395 14.1703 257.395 14.012V13.9328L257.711 12.0328V11.9536C257.711 11.7953 257.948 11.637 258.105 11.637H258.342C260 11.637 261.263 11.0036 261.579 9.10365C261.737 8.31198 261.658 7.67865 261.263 7.20365C261.184 6.80781 261.027 6.64948 260.869 6.57031Z" fill="#3086C8"/>
<path d="M260.396 6.41328C260.317 6.33411 260.238 6.33411 260.159 6.33411C260.08 6.33411 260.001 6.33411 259.922 6.25495C259.686 6.17578 259.37 6.17578 259.054 6.17578H256.686C256.607 6.17578 256.528 6.17578 256.528 6.25495C256.37 6.33411 256.291 6.41328 256.291 6.57161L255.738 10.0549V10.1341C255.738 9.89661 255.975 9.73828 256.212 9.73828H257.238C259.212 9.73828 260.475 8.94661 260.87 6.72995V6.57161C260.791 6.49245 260.633 6.41328 260.475 6.41328H260.396Z" fill="#012169"/>
<path opacity="0.07" d="M349.632 0H324.368C323.026 0 322 1.02917 322 2.375V16.625C322 17.9708 323.105 19 324.368 19H349.632C350.974 19 352 17.9708 352 16.625V2.375C352 1.02917 350.895 0 349.632 0Z" fill="black"/>
<path d="M349.631 0.792969C350.5 0.792969 351.21 1.50547 351.21 2.3763V16.6263C351.21 17.4971 350.5 18.2096 349.631 18.2096H324.368C323.5 18.2096 322.789 17.4971 322.789 16.6263V2.3763C322.789 1.50547 323.5 0.792969 324.368 0.792969H349.631Z" fill="white"/>
<path d="M344.34 7.99453H344.103C343.787 8.7862 343.551 9.18203 343.314 10.3695H344.814C344.577 9.18203 344.577 8.62786 344.34 7.99453ZM346.63 12.6654H345.287C345.208 12.6654 345.208 12.6654 345.13 12.5862L344.972 11.8737L344.893 11.7154H342.998C342.919 11.7154 342.84 11.7154 342.84 11.8737L342.603 12.5862C342.603 12.6654 342.524 12.6654 342.524 12.6654H340.866L341.024 12.2695L343.314 6.8862C343.314 6.49036 343.551 6.33203 343.945 6.33203H345.13C345.208 6.33203 345.287 6.33203 345.287 6.49036L346.393 11.6362C346.472 11.9529 346.551 12.1904 346.551 12.507C346.63 12.5862 346.63 12.5862 346.63 12.6654ZM336.051 12.4279L336.366 11.0029C336.445 11.0029 336.524 11.082 336.524 11.082C337.077 11.3195 337.63 11.4779 338.182 11.3987C338.34 11.3987 338.577 11.3195 338.735 11.2404C339.13 11.082 339.13 10.6862 338.814 10.3695C338.656 10.2112 338.419 10.132 338.182 9.9737C337.866 9.81537 337.551 9.65703 337.314 9.41953C336.366 8.62786 336.682 7.51953 337.235 6.96536C337.708 6.6487 337.945 6.33203 338.577 6.33203C339.524 6.33203 340.551 6.33203 341.024 6.49036H341.103C341.024 6.96536 340.945 7.3612 340.787 7.8362C340.393 7.67786 339.998 7.51953 339.603 7.51953C339.366 7.51953 339.13 7.51953 338.893 7.5987C338.735 7.5987 338.656 7.67786 338.577 7.75703C338.419 7.91536 338.419 8.15286 338.577 8.3112L338.972 8.62786C339.287 8.7862 339.603 8.94453 339.84 9.10286C340.235 9.34036 340.63 9.7362 340.708 10.2112C340.866 10.9237 340.63 11.557 339.998 12.032C339.603 12.3487 339.445 12.507 338.893 12.507C337.787 12.507 336.919 12.5862 336.208 12.3487C336.13 12.507 336.13 12.507 336.051 12.4279ZM333.287 12.6654C333.366 12.1112 333.366 12.1112 333.445 11.8737C333.84 10.132 334.235 8.3112 334.551 6.56953C334.63 6.4112 334.63 6.33203 334.787 6.33203H336.208C336.051 7.28203 335.893 7.99453 335.656 8.86536C335.419 10.0529 335.182 11.2404 334.866 12.4279C334.866 12.5862 334.787 12.5862 334.63 12.5862L333.287 12.6654ZM325.945 6.49036C325.945 6.4112 326.103 6.33203 326.182 6.33203H328.866C329.261 6.33203 329.577 6.56953 329.656 6.96536L330.366 10.4487C330.366 10.5279 330.366 10.5279 330.445 10.607C330.445 10.5279 330.524 10.5279 330.524 10.5279L332.182 6.49036C332.103 6.4112 332.182 6.33203 332.261 6.33203H333.919C333.919 6.4112 333.919 6.4112 333.84 6.49036L331.393 12.2695C331.314 12.4279 331.314 12.507 331.235 12.5862C331.156 12.6654 330.998 12.5862 330.84 12.5862H329.656C329.577 12.5862 329.498 12.5862 329.498 12.4279L328.235 7.51953C328.077 7.3612 327.84 7.1237 327.524 7.04453C327.051 6.80703 326.182 6.6487 326.024 6.6487L325.945 6.49036Z" fill="#142688"/>
<path d="M389.632 0H364.368C363.026 0 362 1.02917 362 2.375V16.625C362 17.9708 363.105 19 364.368 19H389.632C390.974 19 392 17.9708 392 16.625V2.375C392 1.02917 390.895 0 389.632 0Z" fill="#B2FCE4"/>
<path d="M383.633 5.38333L381.501 4.11666L379.37 2.85C377.949 2.05833 376.133 3.0875 376.133 4.75V5.06666C376.133 5.225 376.212 5.38333 376.37 5.4625L377.396 6.01666C377.712 6.175 378.028 5.9375 378.028 5.62083V4.9875C378.028 4.67083 378.343 4.43333 378.659 4.59166L380.633 5.7L382.528 6.8875C382.843 7.04583 382.843 7.44166 382.528 7.6L380.554 8.70833L378.58 9.975C378.264 10.1333 377.949 9.89583 377.949 9.57916V9.2625C377.949 7.6 376.133 6.57083 374.712 7.3625L372.58 8.62916L370.449 9.89583C369.028 10.6875 369.028 12.825 370.449 13.6167L372.58 14.8833L374.712 16.15C376.133 16.9417 377.949 15.9125 377.949 14.25V13.9333C377.949 13.775 377.87 13.6167 377.712 13.5375L376.685 12.9833C376.37 12.825 376.054 13.0625 376.054 13.3792V14.0125C376.054 14.3292 375.738 14.5667 375.422 14.4083L373.449 13.3L371.475 12.1125C371.159 11.9542 371.159 11.5583 371.475 11.4L373.449 10.2917L375.422 9.18333C375.738 9.025 376.054 9.2625 376.054 9.57916V9.89583C376.054 11.5583 377.87 12.5875 379.291 11.7958L381.422 10.5292L383.554 9.2625C385.054 8.3125 385.054 6.25416 383.633 5.38333Z" fill="black"/>
</svg>
